<svg aria-hidden="true" style="position: absolute; width: 0; height: 0; overflow: hidden;" version="1.1" xmlns="http://www.w3.org/2000/svg" xmlns:xlink="http://www.w3.org/1999/xlink">
<defs>
<symbol id="icon-development" viewBox="0 0 24 24">
<title>development</title>
<path d="M14.6,16.6L19.2,12L14.6,7.4L16,6L22,12L16,18L14.6,16.6M9.4,16.6L4.8,12L9.4,7.4L8,6L2,12L8,18L9.4,16.6Z"></path>
</symbol>

<symbol id="icon-bug-hunting" viewBox="0 0 24 24">
<title>bug-hunting</title>
<path d="M14,12H10V10H14M14,16H10V14H14M20,8H17.19C16.74,7.22 16.12,6.55 15.37,6.04L17,4.41L15.59,3L13.42,5.17C12.96,5.06 12.5,5 12,5C11.5,5 11.04,5.06 10.59,5.17L8.41,3L7,4.41L8.62,6.04C7.88,6.55 7.26,7.22 6.81,8H4V10H6.09C6.04,10.33 6,10.66 6,11V12H4V14H6V15C6,15.34 6.04,15.67 6.09,16H4V18H6.81C7.85,19.79 9.78,21 12,21C14.22,21 16.15,19.79 17.19,18H20V16H17.91C17.96,15.67 18,15.34 18,15V14H20V12H18V11C18,10.66 17.96,10.33 17.91,10H20V8Z"></path>
</symbol>

<symbol id="icon-analysis" viewBox="0 0 24 24">
<title>analysis</title>
<path d="M16,11.78L20.24,4.45L21.97,5.45L16.74,14.5L10.23,10.75L5.46,19H22V21H2V3H4V17.54L9.5,8L16,11.78Z"></path>
</symbol>

<symbol id="icon-social" viewBox="0 0 24 24">
<title>visibility</title>
<path d="M18,16.08C17.24,16.08 16.56,16.38 16.04,16.85L8.91,12.7C8.96,12.47 9,12.24 9,12C9,11.76 8.96,11.53 8.91,11.3L15.96,7.19C16.5,7.69 17.21,8 18,8A3,3 0 0,0 21,5A3,3 0 0,0 18,2A3,3 0 0,0 15,5C15,5.24 15.04,5.47 15.09,5.7L8.04,9.81C7.5,9.31 6.79,9 6,9A3,3 0 0,0 3,12A3,3 0 0,0 6,15C6.79,15 7.5,14.69 8.04,14.19L15.16,18.34C15.11,18.55 15.08,18.77 15.08,19C15.08,20.61 16.39,21.91 18,21.91C19.61,21.91 20.92,20.61 20.92,19A2.92,2.92 0 0,0 18,16.08Z"></path>
</symbol>

<symbol id="icon-documentation" viewBox="0 0 24 24">
<title>documentation</title>
<path d="M19,2L14,6.5V17.5L19,13V2M6.5,5C4.55,5 2.45,5.4 1,6.5V21.16C1,21.41 1.25,21.66 1.5,21.66C1.6,21.66 1.65,21.59 1.75,21.59C3.1,20.94 5.05,20.5 6.5,20.5C8.45,20.5 10.55,20.9 12,22C13.35,21.15 15.8,20.5 17.5,20.5C19.15,20.5 20.85,20.81 22.25,21.56C22.35,21.61 22.4,21.59 22.5,21.59C22.75,21.59 23,21.34 23,21.09V6.5C22.4,6.05 21.75,5.75 21,5.5V7.5L21,13V19C19.9,18.65 18.7,18.5 17.5,18.5C15.8,18.5 13.35,19.15 12,20V13L12,8.5V6.5C10.55,5.4 8.45,5 6.5,5V5Z"></path>
</symbol>

<symbol id="icon-copywriting" viewBox="0 0 24 24">
<title>copywriting</title>
<path d="M20.71,7.04C21.1,6.65 21.1,6 20.71,5.63L18.37,3.29C18,2.9 17.35,2.9 16.96,3.29L15.12,5.12L18.87,8.87M3,17.25V21H6.75L17.81,9.93L14.06,6.18L3,17.25Z"></path>
</symbol>

<symbol id="icon-ideas" viewBox="0 0 24 24">
<title>ideas</title>
<path d="M12,2A7,7 0 0,1 19,9C19,11.38 17.81,13.47 16,14.74V17A1,1 0 0,1 15,18H9A1,1 0 0,1 8,17V14.74C6.19,13.47 5,11.38 5,9A7,7 0 0,1 12,2M9,21V20H15V21A1,1 0 0,1 14,22H10A1,1 0 0,1 9,21M12,4A5,5 0 0,0 7,9C7,11.05 8.23,12.81 10,13.58V16H14V13.58C15.77,12.81 17,11.05 17,9A5,5 0 0,0 12,4Z"></path>
</symbol>

<symbol id="icon-translations" viewBox="0 0 24 24">
<title>translations</title>
<path d="M12.87,15.07L10.33,12.56L10.36,12.53C12.1,10.59 13.34,8.36 14.07,6H17V4H10V2H8V4H1V6H12.17C11.5,7.92 10.44,9.75 9,11.35C8.07,10.32 7.3,9.19 6.69,8H4.69C5.42,9.63 6.42,11.17 7.67,12.56L2.58,17.58L4,19L9,14L12.11,17.11L12.87,15.07M18.5,10H16.5L12,22H14L15.12,19H19.87L21,22H23L18.5,10M15.88,17L17.5,12.67L19.12,17H15.88Z"></path>
</symbol>

<symbol id="icon-blog" viewBox="0 0 24 24">
<title>blog</title>
<path d="M15,7H20.5L15,1.5V7M8,0H16L22,6V18A2,2 0 0,1 20,20H8C6.89,20 6,19.1 6,18V2A2,2 0 0,1 8,0M4,4V22H20V24H4A2,2 0 0,1 2,22V4H4Z"></path>
</symbol>

<symbol id="icon-tutorials" viewBox="0 0 24 24">
<title>tutorials</title>
<path d="M12,3L1,9L12,15L21,10.09V17H23V9M5,13.18V17.18L12,21L19,17.18V13.18L12,17L5,13.18Z"></path>
</symbol>

<symbol id="icon-video-tutorials" viewBox="0 0 24 24">
<title>video-tutorials</title>
<path d="M17,10.5V7A1,1 0 0,0 16,6H4A1,1 0 0,0 3,7V17A1,1 0 0,0 4,18H16A1,1 0 0,0 17,17V13.5L21,17.5V6.5L17,10.5Z"></path>
</symbol>

<symbol id="icon-graphics" viewBox="0 0 24 24">
<title>graphics</title>
<path d="M20.71,4.63L19.37,3.29C19,2.9 18.35,2.9 17.96,3.29L9,12.25L11.75,15L20.71,6.04C21.1,5.65 21.1,5 20.71,4.63M7,14A3,3 0 0,0 4,17C4,18.31 2.84,19 2,19C2.92,20.22 4.5,21 6,21A4,4 0 0,0 10,17A3,3 0 0,0 7,14Z"></path>
</symbol>

<symbol id="icon-notification" viewBox="0 0 32 32">
<title>notification</title>
<path d="M16 3c-3.472 0-6.737 1.352-9.192 3.808s-3.808 5.72-3.808 9.192c0 3.472 1.352 6.737 3.808 9.192s5.72 3.808 9.192 3.808c3.472 0 6.737-1.352 9.192-3.808s3.808-5.72 3.808-9.192c0-3.472-1.352-6.737-3.808-9.192s-5.72-3.808-9.192-3.808zM16 0v0c8.837 0 16 7.163 16 16s-7.163 16-16 16c-8.837 0-16-7.163-16-16s7.163-16 16-16zM14 22h4v4h-4zM14 6h4v12h-4z"></path>
</symbol>

<symbol id="icon-github" viewBox="0 0 32 32">
<title>amosbastian/utopian.rocks</title>
<path d="M16 0.395c-8.836 0-16 7.163-16 16 0 7.069 4.585 13.067 10.942 15.182 0.8 0.148 1.094-0.347 1.094-0.77 0-0.381-0.015-1.642-0.022-2.979-4.452 0.968-5.391-1.888-5.391-1.888-0.728-1.849-1.776-2.341-1.776-2.341-1.452-0.993 0.11-0.973 0.11-0.973 1.606 0.113 2.452 1.649 2.452 1.649 1.427 2.446 3.743 1.739 4.656 1.33 0.143-1.034 0.558-1.74 1.016-2.14-3.554-0.404-7.29-1.777-7.29-7.907 0-1.747 0.625-3.174 1.649-4.295-0.166-0.403-0.714-2.030 0.155-4.234 0 0 1.344-0.43 4.401 1.64 1.276-0.355 2.645-0.532 4.005-0.539 1.359 0.006 2.729 0.184 4.008 0.539 3.054-2.070 4.395-1.64 4.395-1.64 0.871 2.204 0.323 3.831 0.157 4.234 1.026 1.12 1.647 2.548 1.647 4.295 0 6.145-3.743 7.498-7.306 7.895 0.574 0.497 1.085 1.47 1.085 2.963 0 2.141-0.019 3.864-0.019 4.391 0 0.426 0.288 0.925 1.099 0.768 6.354-2.118 10.933-8.113 10.933-15.18 0-8.837-7.164-16-16-16z"></path>
</symbol>

<symbol id="icon-pencil" viewBox="0 0 32 32">
<title>amount of contributions</title>
<path d="M27 0c2.761 0 5 2.239 5 5 0 1.126-0.372 2.164-1 3l-2 2-7-7 2-2c0.836-0.628 1.874-1 3-1zM2 23l-2 9 9-2 18.5-18.5-7-7-18.5 18.5zM22.362 11.362l-14 14-1.724-1.724 14-14 1.724 1.724z"></path>
</symbol>

<symbol id="icon-clock" viewBox="0 0 32 32">
<title>time until next upvote</title>
<path d="M20.586 23.414l-6.586-6.586v-8.828h4v7.172l5.414 5.414zM16 0c-8.837 0-16 7.163-16 16s7.163 16 16 16 16-7.163 16-16-7.163-16-16-16zM16 28c-6.627 0-12-5.373-12-12s5.373-12 12-12c6.627 0 12 5.373 12 12s-5.373 12-12 12z"></path>
</symbol>

<symbol id="icon-power" viewBox="0 0 32 32">
<title>utopian-io voting power</title>
<path d="M12 0l-12 16h12l-8 16 28-20h-16l12-12z"></path>
</symbol>

<symbol id="icon-all" viewBox="0 0 24 24">
<title>all</title>
<path d="M11,13.5V21.5H3V13.5H11M12,2L17.5,11H6.5L12,2M17.5,13C20,13 22,15 22,17.5C22,20 20,22 17.5,22C15,22 13,20 13,17.5C13,15 15,13 17.5,13Z"></path>
</symbol>

<symbol id="icon-anti-abuse" viewBox="0 0 24 24">
<title>anti-abuse</title>
<path d="M12 0.984l9 4.031v6c0 5.531-3.844 10.734-9 12-5.156-1.266-9-6.469-9-12v-6zM12 12v8.953c3.703-1.172 6.469-4.828 6.984-8.953h-6.984zM12 12v-8.813l-6.984 3.094v5.719h6.984z"></path>
</symbol>

<symbol id="icon-iamutopian" viewBox="0 0 300 300">
<title>iamutopian</title>
<g id="_Group_" data-name="&lt;Group&gt;">
<g id="_Group_2" data-name="&lt;Group&gt;">
<path class="cls-1" d="M241.16,140.89c5,14.08,4,30.59-2,44.45a64.38,64.38,0,0,1-24.7,28.52c-9.58,6.12-20.91,10-32,10-6.7,0-13.5-1.49-20-3.34a128.64,128.64,0,0,1-38.22-17.77,125.08,125.08,0,0,1-30.24-30.26A136.45,136.45,0,0,1,80,147.95a130.92,130.92,0,0,0,26.67,27.58,112.5,112.5,0,0,0,15.45,9.81,73.94,73.94,0,0,1-3.8-21.92,69.16,69.16,0,0,1,9.93-36.25,74.18,74.18,0,0,1,15.12-17.9c-1.62-.46-3.13-.81-4.73-1.27a224.33,224.33,0,0,0-83-5.79A132.44,132.44,0,0,1,90.49,83.28a129.31,129.31,0,0,1,83.25-.58A128.07,128.07,0,0,1,218,109C227.89,117.92,236.77,128.43,241.16,140.89Zm-23.79,36a45.6,45.6,0,0,0,3.24-16.16,133.87,133.87,0,0,0-28.29-28.87,126.66,126.66,0,0,0-17.19-10.52c-9.13,1.74-18.48,5.89-24.83,12.82a39.1,39.1,0,0,0-9.58,28.87c.81,10.85,6.45,21.24,14.43,28.52a50,50,0,0,0,17.32,10,49.27,49.27,0,0,0,10-.23,45.38,45.38,0,0,0,23.08-9.13A39.46,39.46,0,0,0,217.37,176.92Z"/><path class="cls-1" d="M180.89,137.56a23.55,23.55,0,1,1-23.56,23.54A23.55,23.55,0,0,1,180.89,137.56Z"/>
</g>
</g>
</symbol>
</defs>
</svg>

