<!-- Generated by IcoMoon.io -->
<svg version="1.1" xmlns="http://www.w3.org/2000/svg" width="24" height="24" viewBox="0 0 24 24">
<title>all_inclusive</title>
<path d="M18.609 6.609c3 0 5.391 2.438 5.391 5.391s-2.391 5.391-5.391 5.391c-1.453 0-2.813-0.563-3.844-1.594l-1.266-1.125 1.5-1.313 1.172 0.984c0.703 0.703 1.547 1.031 2.438 1.031 1.875 0 3.375-1.5 3.375-3.375s-1.5-3.375-3.375-3.375c-0.891 0-1.734 0.328-2.391 0.984-1.412 1.244-2.835 2.478-4.219 3.75l-2.813 2.484c-0.984 0.984-2.344 1.547-3.797 1.547-3 0-5.391-2.438-5.391-5.391s2.391-5.391 5.391-5.391c1.453 0 2.813 0.563 3.844 1.594l1.266 1.125-1.547 1.313-1.125-0.984c-0.703-0.703-1.547-1.031-2.438-1.031-1.875 0-3.375 1.5-3.375 3.375s1.5 3.375 3.375 3.375c0.891 0 1.734-0.328 2.391-0.984 1.412-1.244 2.835-2.478 4.219-3.75l2.813-2.484c0.984-0.984 2.344-1.547 3.797-1.547z"></path>
</svg>
