<!-- Generated by IcoMoon.io -->
<svg version="1.1" xmlns="http://www.w3.org/2000/svg" width="24" height="24" viewBox="0 0 24 24">
<title>bug_report</title>
<path d="M14.016 12v-2.016h-4.031v2.016h4.031zM14.016 15.984v-1.969h-4.031v1.969h4.031zM20.016 8.016v1.969h-2.109c0.047 0.328 0.094 0.703 0.094 1.031v0.984h2.016v2.016h-2.016v0.984c0 0.328-0.047 0.656-0.094 0.984h2.109v2.016h-2.813c-1.031 1.781-3 3-5.203 3s-4.172-1.219-5.203-3h-2.813v-2.016h2.109c-0.047-0.328-0.094-0.656-0.094-0.984v-0.984h-2.016v-2.016h2.016v-0.984c0-0.328 0.047-0.703 0.094-1.031h-2.109v-1.969h2.813c0.469-0.797 1.078-1.453 1.828-1.969l-1.641-1.641 1.406-1.406 2.203 2.156c0.469-0.094 0.938-0.141 1.406-0.141s0.938 0.047 1.406 0.141l2.203-2.156 1.406 1.406-1.641 1.641c0.75 0.516 1.359 1.172 1.828 1.969h2.813z"></path>
</svg>
