<!-- Generated by IcoMoon.io -->
<svg version="1.1" xmlns="http://www.w3.org/2000/svg" width="24" height="24" viewBox="0 0 24 24">
<title>library_books</title>
<path d="M18.984 6.984v-1.969h-9.984v1.969h9.984zM15 15v-2.016h-6v2.016h6zM18.984 11.016v-2.016h-9.984v2.016h9.984zM20.016 2.016c1.078 0 1.969 0.891 1.969 1.969v12c0 1.078-0.891 2.016-1.969 2.016h-12c-1.078 0-2.016-0.938-2.016-2.016v-12c0-1.078 0.938-1.969 2.016-1.969h12zM3.984 6v14.016h14.016v1.969h-14.016c-1.078 0-1.969-0.891-1.969-1.969v-14.016h1.969z"></path>
</svg>
