<!-- Generated by IcoMoon.io -->
<svg version="1.1" xmlns="http://www.w3.org/2000/svg" width="24" height="24" viewBox="0 0 24 24">
<title>lightbulb_outline</title>
<path d="M14.859 13.078c1.359-0.938 2.156-2.438 2.156-4.078 0-2.766-2.25-5.016-5.016-5.016s-5.016 2.25-5.016 5.016c0 1.641 0.797 3.141 2.156 4.078l0.844 0.609v2.297h4.031v-2.297zM12 2.016c3.844 0 6.984 3.141 6.984 6.984 0 2.391-1.172 4.453-3 5.719v2.297c0 0.563-0.422 0.984-0.984 0.984h-6c-0.563 0-0.984-0.422-0.984-0.984v-2.297c-1.828-1.266-3-3.328-3-5.719 0-3.844 3.141-6.984 6.984-6.984zM9 21v-0.984h6v0.984c0 0.563-0.422 0.984-0.984 0.984h-4.031c-0.563 0-0.984-0.422-0.984-0.984z"></path>
</svg>
