<!-- Generated by IcoMoon.io -->
<svg version="1.1" xmlns="http://www.w3.org/2000/svg" width="24" height="24" viewBox="0 0 24 24">
<title>person_outline</title>
<path d="M12 12.984c2.672 0 8.016 1.359 8.016 4.031v3h-16.031v-3c0-2.672 5.344-4.031 8.016-4.031zM12 3.984c2.203 0 3.984 1.828 3.984 4.031s-1.781 3.984-3.984 3.984-3.984-1.781-3.984-3.984 1.781-4.031 3.984-4.031zM12 14.906c-2.953 0-6.094 1.453-6.094 2.109v1.078h12.188v-1.078c0-0.656-3.141-2.109-6.094-2.109zM12 5.906c-1.172 0-2.109 0.938-2.109 2.109s0.938 2.063 2.109 2.063 2.109-0.891 2.109-2.063-0.938-2.109-2.109-2.109z"></path>
</svg>
