<!-- Generated by IcoMoon.io -->
<svg version="1.1" xmlns="http://www.w3.org/2000/svg" width="24" height="24" viewBox="0 0 24 24">
<title>thumb_up</title>
<path d="M23.016 9.984l-0.047 0.094h0.047v1.922c0 0.281-0.047 0.516-0.141 0.75l-3.047 7.031c-0.281 0.703-0.984 1.219-1.828 1.219h-9c-1.078 0-2.016-0.938-2.016-2.016v-9.984c0-0.563 0.234-1.031 0.609-1.406l6.563-6.609 1.078 1.078c0.281 0.281 0.422 0.609 0.422 1.031v0.328l-0.984 4.594h6.328c1.078 0 2.016 0.891 2.016 1.969zM0.984 21v-12h4.031v12h-4.031z"></path>
</svg>
